<svg width="39" height="61" viewBox="0 0 39 61" fill="none" xmlns="http://www.w3.org/2000/svg">
<path d="M14.127 1C14.3517 5.84687 14.0497 10.845 14.5169 15.6657" stroke="#1D1D1D" stroke-miterlimit="1.5" stroke-linecap="round" stroke-linejoin="round"/>
<path d="M1 20.603C3.47342 20.4259 6.54269 19.4438 9.00472 19.7222" stroke="#1D1D1D" stroke-miterlimit="1.5" stroke-linecap="round" stroke-linejoin="round"/>
<path d="M18.6338 18.782C21.5861 19.1348 24.5487 18.666 27.5131 19.0047" stroke="#1D1D1D" stroke-miterlimit="1.5" stroke-linecap="round" stroke-linejoin="round"/>
<path d="M14.3216 23.759C14.221 27.4197 14.2345 31.0807 14.2335 34.7423" stroke="#1D1D1D" stroke-miterlimit="1.5" stroke-linecap="round" stroke-linejoin="round"/>
<path d="M30.2282 34.3093C29.9652 37.1879 30.1944 40.0436 30.2518 42.9252" stroke="#1D1D1D" stroke-miterlimit="1.5" stroke-linecap="round" stroke-linejoin="round"/>
<path d="M23.8418 47.1509C24.8013 47.0302 25.7933 46.8531 26.7629 46.8608" stroke="#1D1D1D" stroke-miterlimit="1.5" stroke-linecap="round" stroke-linejoin="round"/>
<path d="M34.1221 46.56C35.4099 46.6021 36.6642 46.4449 37.9474 46.3767" stroke="#1D1D1D" stroke-miterlimit="1.5" stroke-linecap="round" stroke-linejoin="round"/>
<path d="M30.6804 50.6086C30.5375 53.736 30.5691 56.8698 30.5671 60" stroke="#1D1D1D" stroke-miterlimit="1.5" stroke-linecap="round" stroke-linejoin="round"/>
</svg>
