<svg width="104" height="99" viewBox="0 0 104 99" fill="none" xmlns="http://www.w3.org/2000/svg">
<path d="M86.1599 97.549C96.8666 69.6351 87.8981 40.7691 69.2358 30.4723C67.3861 29.4518 65.3719 28.3429 63.2676 27.4182M63.2676 27.4182C59.9165 25.9455 56.3374 24.9396 52.8311 25.5004C49.5952 26.018 45.5988 28.0555 44.4062 31.2699C42.179 37.2745 48.6832 42.7377 54.5926 40.957C59.7863 39.3923 64.1797 32.7064 63.2676 27.4182ZM63.2676 27.4182C63.2484 27.3067 63.2268 27.1957 63.2028 27.0855C57.4096 0.477112 25.5413 -2.61441 7.08431 9.87182" stroke="#1D1D1D" stroke-miterlimit="1.5" stroke-linecap="round" stroke-linejoin="round"/>
<path d="M97.1885 82.9472C94.1389 87.5262 89.8992 93.6019 86.1586 97.5489C85.7278 98.0041 83.4217 93.9058 83.3314 93.7079C81.3454 89.3687 79.9882 84.9024 78.7028 80.3211" stroke="#1D1D1D" stroke-miterlimit="1.5" stroke-linecap="round" stroke-linejoin="round"/>
</svg>
