<svg width="27" height="19" viewBox="0 0 27 19" fill="none" xmlns="http://www.w3.org/2000/svg">
<path d="M24.8475 1.14553C17.7566 1.05852 10.6658 1.00052 3.57486 0.981186C2.52597 0.981186 1.17739 1.2277 0.926043 2.41193C0.810037 7.04736 1.11939 11.6779 1.43357 16.2989C1.46741 16.8161 1.50608 17.3478 1.72359 17.807C1.9411 18.2661 2.38579 18.6335 2.78215 18.619C9.86337 18.5658 16.9446 18.5078 24.0258 18.4547C24.6639 18.4498 25.3889 18.4015 25.8771 17.7006C26.723 13.0942 25.7273 8.30893 26.1188 3.63C26.1623 3.0983 26.2251 2.55211 26.0704 2.04458C25.9158 1.54188 25.4662 1.10203 24.8524 1.13586L24.8475 1.14553Z" fill="white" stroke="#1D1D1D" stroke-width="0.4"/>
<path d="M2.75327 18.8026C2.31341 18.8026 1.81555 18.4208 1.55937 17.8842C1.32252 17.3864 1.28386 16.816 1.25002 16.3085C0.945504 11.76 0.63132 7.05212 0.747326 2.40703C0.747326 2.39736 0.747326 2.38286 0.747326 2.37319C0.960005 1.35814 1.95573 0.79744 3.55082 0.79744H3.57015C10.6272 0.821608 17.7858 0.874777 24.838 0.961782C25.5679 0.923113 26.0657 1.45481 26.2349 1.99617C26.3896 2.5037 26.3461 3.0354 26.3026 3.54776L26.2929 3.64926C26.1237 5.65038 26.2156 7.70949 26.3026 9.70093C26.4186 12.3497 26.5346 15.0904 26.0512 17.7392C26.0512 17.7634 26.0367 17.7876 26.0222 17.8117C25.447 18.6286 24.5577 18.6383 24.0211 18.6431L2.77744 18.8074C2.77744 18.8074 2.7581 18.8074 2.74844 18.8074L2.75327 18.8026ZM1.10501 2.4312C0.989006 7.05695 1.30802 11.7504 1.61254 16.2891C1.64638 16.7628 1.68021 17.2994 1.88322 17.7344C2.07657 18.1452 2.46809 18.4546 2.76777 18.4449L24.0163 18.2806C24.6592 18.2757 25.2682 18.2226 25.6984 17.6377C26.1672 15.0469 26.0512 12.3401 25.9401 9.72027C25.8531 7.71916 25.7612 5.64554 25.9352 3.6251L25.9449 3.52359C25.9836 3.04506 26.0271 2.5472 25.8917 2.11218C25.7661 1.70132 25.3939 1.30497 24.8573 1.33397C24.8573 1.33397 24.8477 1.33397 24.8428 1.33397C17.7858 1.24696 10.6272 1.18896 3.57015 1.16963H3.55082C2.55993 1.15996 1.33703 1.38231 1.10501 2.4312Z" fill="#1D1D1D" stroke="#1D1D1D" stroke-width="0.4"/>
<path d="M2.25061 18.5321C2.20711 18.5321 2.15877 18.5176 2.12493 18.479C2.05243 18.4113 2.05243 18.2953 2.12493 18.2228C4.93809 15.3081 7.90109 12.4708 10.9221 9.78331C10.9946 9.71564 11.1106 9.72531 11.1783 9.79782C11.2459 9.87032 11.2363 9.98633 11.1638 10.054C8.1476 12.7366 5.19911 15.5691 2.38595 18.4741C2.35211 18.5128 2.30378 18.5273 2.25544 18.5273L2.25061 18.5321Z" fill="#1D1D1D" stroke="#1D1D1D" stroke-width="0.4"/>
<path d="M25.4374 17.9954C25.3939 17.9954 25.3553 17.9809 25.3214 17.9519C22.4019 15.4819 19.5211 12.9008 16.766 10.2761C16.6935 10.2085 16.6886 10.0925 16.7611 10.02C16.8288 9.94746 16.9448 9.94262 17.0173 10.0151C19.7676 12.6349 22.6436 15.2112 25.5583 17.6764C25.6356 17.7392 25.6453 17.8552 25.5776 17.9326C25.5438 17.9761 25.4906 17.9954 25.4374 17.9954Z" fill="#1D1D1D" stroke="#1D1D1D" stroke-width="0.4"/>
<path d="M25.5196 2.03491C22.1602 5.29759 18.6366 8.4056 14.9678 11.3541C14.5957 11.8181 14.1316 11.8906 13.7594 11.7843C13.3873 11.6779 13.0779 11.4314 12.7831 11.1898C8.98385 8.07691 5.21847 4.92541 1.68994 1.85607C1.75278 1.30504 2.52132 1.1552 3.11102 1.15036C10.1149 1.09236 17.1236 1.03436 24.1275 0.981186C24.5335 0.981186 24.9589 0.981186 25.3166 1.16003C25.6743 1.33887 25.8676 1.69656 25.5148 2.03974L25.5196 2.03491Z" fill="white" stroke="#1D1D1D" stroke-width="0.4"/>
<path d="M14.0688 12.0114C13.9528 12.0114 13.832 11.9969 13.7111 11.9582C13.2954 11.8374 12.9619 11.5667 12.6719 11.3299C8.45699 7.88351 4.82696 4.82867 1.57394 1.99135C1.53044 1.95268 1.50627 1.89468 1.51111 1.83667C1.56911 1.29048 2.15398 0.976293 3.11103 0.966626L24.1324 0.79745C24.5191 0.79745 24.9976 0.792616 25.4036 0.995627C25.6743 1.13097 25.8483 1.33881 25.8821 1.57083C25.9063 1.71583 25.8821 1.93818 25.6501 2.16536C22.3053 5.41354 18.7574 8.54571 15.1032 11.4845C14.818 11.8277 14.4555 12.0114 14.0736 12.0114H14.0688ZM1.89296 1.78834C5.12181 4.60149 8.72768 7.62733 12.9039 11.0495C13.1698 11.267 13.4694 11.5135 13.8126 11.6102C14.0301 11.6731 14.4555 11.7069 14.8325 11.238C14.8422 11.2284 14.8519 11.2187 14.8615 11.209C18.5157 8.27503 22.0588 5.14286 25.3988 1.89951C25.4954 1.80284 25.5389 1.711 25.5293 1.61916C25.5099 1.50799 25.4084 1.39198 25.2441 1.30981C24.9154 1.14547 24.4997 1.1503 24.1372 1.1503L3.11586 1.33398C2.58417 1.33398 2.00897 1.46449 1.89296 1.79317V1.78834Z" fill="#1D1D1D" stroke="#1D1D1D" stroke-width="0.4"/>
</svg>
