<svg width="14" height="14" viewBox="0 0 14 14" fill="none" xmlns="http://www.w3.org/2000/svg">
<path d="M12.5991 1.69811C12.6616 1.6267 12.7094 1.54368 12.7397 1.45381C12.7701 1.36393 12.7825 1.26895 12.7761 1.17429C12.7698 1.07964 12.7449 0.987153 12.7028 0.902127C12.6607 0.8171 12.6023 0.741194 12.5309 0.678742C12.4595 0.61629 12.3765 0.568516 12.2866 0.538147C12.1967 0.507778 12.1017 0.495409 12.0071 0.501747C11.9124 0.508084 11.8199 0.533004 11.7349 0.575082C11.6499 0.617161 11.574 0.675575 11.5115 0.746989L7.82114 4.96458L4.689 0.788876C4.62173 0.699183 4.53451 0.626383 4.43423 0.576243C4.33395 0.526104 4.22337 0.5 4.11125 0.5H1.22249C1.08838 0.5 0.956906 0.537348 0.842817 0.607858C0.728729 0.678369 0.636529 0.779257 0.576549 0.899217C0.516569 1.01918 0.491179 1.15347 0.503224 1.28705C0.515268 1.42062 0.564272 1.54821 0.644743 1.6555L5.29348 7.85333L1.40088 12.302C1.33842 12.3734 1.29065 12.4565 1.26028 12.5463C1.22991 12.6362 1.21754 12.7312 1.22388 12.8258C1.23022 12.9205 1.25514 13.013 1.29722 13.098C1.33929 13.183 1.39771 13.2589 1.46912 13.3214C1.54054 13.3838 1.62355 13.4316 1.71343 13.462C1.80331 13.4924 1.89828 13.5047 1.99294 13.4984C2.0876 13.492 2.18008 13.4671 2.26511 13.4251C2.35014 13.383 2.42604 13.3246 2.48849 13.2531L6.17888 9.03483L9.31102 13.2105C9.37829 13.3002 9.46552 13.373 9.56579 13.4232C9.66607 13.4733 9.77665 13.4994 9.88877 13.4994H12.7775C12.9116 13.4994 13.0431 13.4621 13.1572 13.3916C13.2713 13.321 13.3635 13.2202 13.4235 13.1002C13.4835 12.9802 13.5088 12.8459 13.4968 12.7124C13.4848 12.5788 13.4357 12.4512 13.3553 12.3439L8.70654 6.14608L12.5991 1.69811Z" fill="#1D1D1D"/>
</svg>
