<svg width="90" height="23" viewBox="0 0 90 23" fill="none" xmlns="http://www.w3.org/2000/svg">
<path d="M0.46 22V2.2H5.47L11.68 18.43H11.83L18.01 2.2H22.81V22H19.69L19.9 5.5H19.63L13.09 22H10.09L3.61 5.5H3.34L3.55 22H0.46ZM33.4661 22.39C28.4861 22.39 25.7261 19.36 25.7261 14.47C25.7261 9.55 28.4561 6.01 33.1961 6.01C37.5461 6.01 40.3061 8.92 40.0361 14.74L28.8761 14.8C28.9961 18.16 30.6461 19.84 33.4961 19.84C35.9561 19.84 36.9461 18.55 37.3961 17.02L40.2461 17.68C39.5261 20.59 37.3661 22.39 33.4661 22.39ZM33.2261 8.68C31.0061 8.68 29.4461 10.18 29.0261 12.79L37.0061 12.73C36.8561 9.97 35.2661 8.68 33.2261 8.68ZM49.7634 22.39C44.7834 22.39 42.0234 19.36 42.0234 14.47C42.0234 9.55 44.7534 6.01 49.4934 6.01C53.8434 6.01 56.6034 8.92 56.3334 14.74L45.1734 14.8C45.2934 18.16 46.9434 19.84 49.7934 19.84C52.2534 19.84 53.2434 18.55 53.6934 17.02L56.5434 17.68C55.8234 20.59 53.6634 22.39 49.7634 22.39ZM49.5234 8.68C47.3034 8.68 45.7434 10.18 45.3234 12.79L53.3034 12.73C53.1534 9.97 51.5634 8.68 49.5234 8.68ZM59.1027 22V0.819999H62.3127V12.79C65.2527 11.14 67.8027 8.38 68.7927 6.4H72.5727C71.1627 9.46 68.0427 12.67 64.4427 13.42V13.81C68.9127 13.33 70.6227 16.6 72.2127 19.93L73.0527 22H69.4527L68.8527 20.59C67.5027 17.56 66.1827 15.31 63.2427 15.31H62.3127V22H59.1027ZM81.419 22.39C76.889 22.39 73.739 19.45 73.739 14.14C73.739 8.68 77.069 6.01 81.389 6.01C85.799 6.01 89.099 8.83 89.099 14.26C89.099 19.69 85.769 22.39 81.419 22.39ZM81.539 19.81C84.239 19.81 85.829 17.8 85.829 14.38C85.829 10.87 84.179 8.68 81.299 8.68C78.659 8.68 77.039 10.6 77.039 14.08C77.039 17.71 78.749 19.81 81.539 19.81Z" fill="#1D1D1D"/>
</svg>
