<?xml version="1.0" encoding="utf-8"?>
<!-- Generator: Adobe Illustrator 24.1.3, SVG Export Plug-In . SVG Version: 6.00 Build 0)  -->
<svg version="1.1" id="Layer_1" xmlns="http://www.w3.org/2000/svg" xmlns:xlink="http://www.w3.org/1999/xlink" x="0px" y="0px"
	 viewBox="0 0 196.04 29.33" style="enable-background:new 0 0 196.04 29.33;" xml:space="preserve">
<g>
	<g>
		<path d="M1.77,22.82l-0.29-3.39c0.21,0.02,0.42,0.03,0.62,0.04c0.2,0.01,0.36,0.01,0.48,0.01c0.89,0,1.57-0.13,2.04-0.39
			c0.47-0.26,0.79-0.67,0.96-1.22c0.16-0.55,0.25-1.26,0.25-2.13V3.45h3.68v12.3c0,1.51-0.21,2.79-0.62,3.86
			c-0.42,1.06-1.09,1.88-2.02,2.45c-0.93,0.57-2.17,0.86-3.71,0.86c-0.15,0-0.34,0-0.55-0.01C2.4,22.88,2.12,22.86,1.77,22.82z"/>
		<path d="M17.28,23c-0.83,0-1.58-0.16-2.23-0.49s-1.17-0.82-1.54-1.46s-0.55-1.44-0.55-2.36c0-0.79,0.15-1.47,0.44-2.03
			c0.29-0.56,0.73-1.02,1.33-1.38c0.6-0.36,1.34-0.66,2.23-0.91c0.89-0.25,1.94-0.45,3.16-0.61c0.62-0.1,1.14-0.19,1.55-0.29
			c0.42-0.1,0.73-0.25,0.93-0.45c0.2-0.2,0.3-0.51,0.3-0.91c0-0.6-0.21-1.12-0.62-1.55c-0.42-0.44-1.1-0.65-2.04-0.65
			c-0.56,0-1.09,0.1-1.58,0.3c-0.49,0.2-0.93,0.51-1.3,0.91c-0.38,0.41-0.63,0.94-0.77,1.59l-3.25-1.01
			c0.19-0.73,0.49-1.39,0.9-1.97c0.41-0.58,0.9-1.07,1.49-1.48c0.59-0.41,1.28-0.71,2.07-0.9c0.79-0.19,1.63-0.29,2.52-0.29
			c1.41,0,2.58,0.23,3.49,0.7c0.92,0.46,1.6,1.17,2.03,2.12c0.43,0.95,0.65,2.17,0.65,3.68v2.84c0.02,0.64,0.04,1.31,0.06,2.03
			c0.02,0.72,0.05,1.43,0.1,2.13c0.05,0.71,0.11,1.39,0.19,2.04h-3.25c-0.1-0.54-0.17-1.12-0.23-1.74
			c-0.06-0.62-0.11-1.25-0.15-1.88h-0.44c-0.27,0.72-0.66,1.39-1.16,2.02c-0.5,0.63-1.12,1.12-1.84,1.48
			C19.07,22.82,18.23,23,17.28,23z M18.73,20.27c0.39,0,0.78-0.07,1.17-0.2c0.4-0.14,0.79-0.33,1.17-0.59
			c0.39-0.26,0.74-0.59,1.07-1c0.33-0.41,0.61-0.88,0.84-1.42l-0.06-2.61l0.73,0.17c-0.35,0.25-0.76,0.45-1.23,0.59
			s-0.98,0.27-1.51,0.36c-0.53,0.1-1.06,0.19-1.6,0.29c-0.53,0.1-1.01,0.23-1.44,0.39c-0.43,0.16-0.76,0.4-1.01,0.7
			c-0.25,0.3-0.38,0.71-0.38,1.23c0,0.66,0.21,1.17,0.62,1.54C17.54,20.09,18.08,20.27,18.73,20.27z"/>
		<path d="M36.1,27.78c-0.77,0-1.56-0.08-2.35-0.23c-0.79-0.15-1.53-0.39-2.22-0.71c-0.69-0.32-1.26-0.73-1.73-1.23l1.25-3.04
			c0.58,0.66,1.3,1.15,2.17,1.48c0.87,0.33,1.77,0.49,2.7,0.49c1.06,0,1.94-0.22,2.64-0.67c0.7-0.44,1.23-1.12,1.6-2.02
			c0.37-0.9,0.57-2.03,0.61-3.38l0.23-2.78h-0.64c-0.19,1.35-0.52,2.44-0.97,3.25c-0.45,0.81-1.01,1.4-1.67,1.77
			c-0.66,0.37-1.43,0.55-2.32,0.55c-1.1,0-2.03-0.28-2.78-0.83c-0.75-0.55-1.32-1.38-1.7-2.48c-0.38-1.1-0.57-2.46-0.57-4.06V7.42
			h3.68v5.6c0,1.82,0.22,3.14,0.65,3.96s1.12,1.23,2.04,1.23c0.5,0,0.95-0.13,1.33-0.39c0.39-0.26,0.72-0.64,1.01-1.13
			c0.29-0.49,0.52-1.11,0.68-1.84c0.16-0.73,0.26-1.58,0.28-2.52v-4.9h3.68v11.22c0,1.18-0.1,2.26-0.3,3.23
			c-0.2,0.98-0.51,1.83-0.91,2.57c-0.41,0.73-0.91,1.35-1.52,1.86c-0.61,0.5-1.32,0.87-2.13,1.12
			C38.05,27.66,37.13,27.78,36.1,27.78z"/>
		<path d="M51.27,23c-0.83,0-1.58-0.16-2.23-0.49s-1.17-0.82-1.54-1.46s-0.55-1.44-0.55-2.36c0-0.79,0.15-1.47,0.44-2.03
			c0.29-0.56,0.73-1.02,1.33-1.38c0.6-0.36,1.34-0.66,2.23-0.91c0.89-0.25,1.94-0.45,3.16-0.61c0.62-0.1,1.14-0.19,1.55-0.29
			c0.42-0.1,0.73-0.25,0.93-0.45c0.2-0.2,0.3-0.51,0.3-0.91c0-0.6-0.21-1.12-0.62-1.55c-0.42-0.44-1.1-0.65-2.04-0.65
			c-0.56,0-1.09,0.1-1.58,0.3c-0.49,0.2-0.93,0.51-1.3,0.91c-0.38,0.41-0.63,0.94-0.77,1.59l-3.25-1.01
			c0.19-0.73,0.49-1.39,0.9-1.97c0.41-0.58,0.9-1.07,1.49-1.48c0.59-0.41,1.28-0.71,2.07-0.9c0.79-0.19,1.63-0.29,2.52-0.29
			c1.41,0,2.58,0.23,3.49,0.7c0.92,0.46,1.6,1.17,2.03,2.12c0.43,0.95,0.65,2.17,0.65,3.68v2.84c0.02,0.64,0.04,1.31,0.06,2.03
			c0.02,0.72,0.05,1.43,0.1,2.13c0.05,0.71,0.11,1.39,0.19,2.04h-3.25c-0.1-0.54-0.17-1.12-0.23-1.74
			c-0.06-0.62-0.11-1.25-0.15-1.88h-0.44c-0.27,0.72-0.66,1.39-1.16,2.02c-0.5,0.63-1.12,1.12-1.84,1.48
			C53.05,22.82,52.22,23,51.27,23z M52.72,20.27c0.39,0,0.78-0.07,1.17-0.2c0.4-0.14,0.79-0.33,1.17-0.59
			c0.39-0.26,0.74-0.59,1.07-1c0.33-0.41,0.61-0.88,0.84-1.42l-0.06-2.61l0.73,0.17c-0.35,0.25-0.76,0.45-1.23,0.59
			s-0.98,0.27-1.51,0.36c-0.53,0.1-1.06,0.19-1.6,0.29c-0.53,0.1-1.01,0.23-1.44,0.39c-0.43,0.16-0.76,0.4-1.01,0.7
			c-0.25,0.3-0.38,0.71-0.38,1.23c0,0.66,0.21,1.17,0.62,1.54C51.53,20.09,52.06,20.27,52.72,20.27z"/>
		<path d="M76.38,22.59L69.95,3.45h4l4.84,16.01h0.35l4.87-16.01h3.94l-6.47,19.14H76.38z"/>
		<path d="M97.52,23c-1.24,0-2.33-0.18-3.29-0.54s-1.76-0.87-2.42-1.54s-1.15-1.47-1.48-2.41c-0.33-0.94-0.49-2.02-0.49-3.23
			c0-1.2,0.16-2.3,0.49-3.31c0.33-1.01,0.81-1.88,1.45-2.62c0.64-0.74,1.42-1.31,2.33-1.71c0.92-0.4,1.96-0.59,3.12-0.59
			c1.12,0,2.12,0.18,3,0.54s1.61,0.9,2.19,1.64c0.58,0.74,1.01,1.64,1.3,2.71c0.29,1.07,0.41,2.33,0.35,3.76l-11.86,0.06v-2.12
			l9.71-0.06l-1.31,1.16c0.12-1.1,0.03-2.01-0.25-2.71s-0.7-1.23-1.25-1.57c-0.55-0.34-1.17-0.51-1.87-0.51
			c-0.77,0-1.46,0.21-2.04,0.62c-0.59,0.42-1.05,1.02-1.38,1.8c-0.33,0.78-0.49,1.74-0.49,2.86c0,1.68,0.37,2.94,1.1,3.77
			c0.73,0.83,1.76,1.25,3.07,1.25c0.58,0,1.07-0.07,1.46-0.22c0.4-0.15,0.73-0.34,1-0.59c0.27-0.25,0.49-0.53,0.65-0.84
			c0.16-0.31,0.29-0.62,0.39-0.93l3.19,0.7c-0.17,0.72-0.43,1.35-0.77,1.91c-0.34,0.56-0.78,1.05-1.33,1.46
			c-0.55,0.42-1.2,0.73-1.96,0.94S98.53,23,97.52,23z"/>
		<path d="M107.33,22.59V2h3.63v20.59H107.33z"/>
		<path d="M122.12,22.59V3.45h7.42c1.02,0,1.95,0.08,2.78,0.23c0.83,0.16,1.57,0.39,2.22,0.71c0.65,0.32,1.2,0.71,1.65,1.16
			c0.45,0.45,0.8,0.98,1.03,1.57c0.23,0.59,0.35,1.24,0.35,1.96c0,0.68-0.11,1.29-0.33,1.84c-0.22,0.55-0.54,1.03-0.96,1.45
			c-0.42,0.42-0.94,0.75-1.57,1c-0.63,0.25-1.36,0.43-2.19,0.52v0.41c0.89,0.12,1.62,0.34,2.19,0.67c0.57,0.33,1.03,0.79,1.39,1.38
			c0.36,0.59,0.66,1.32,0.91,2.19l1.16,4.06h-4.03l-0.93-3.71c-0.17-0.77-0.44-1.39-0.8-1.84c-0.36-0.45-0.81-0.78-1.35-0.99
			c-0.54-0.2-1.19-0.3-1.94-0.3h-3.33v6.84H122.12z M125.8,12.93h3.45c1.47,0,2.59-0.27,3.35-0.81c0.76-0.54,1.15-1.38,1.15-2.52
			c0-1.1-0.36-1.92-1.09-2.46c-0.73-0.54-1.82-0.81-3.29-0.81h-3.57V12.93z"/>
		<path d="M144.85,23c-0.83,0-1.58-0.16-2.23-0.49s-1.17-0.82-1.54-1.46s-0.55-1.44-0.55-2.36c0-0.79,0.15-1.47,0.44-2.03
			c0.29-0.56,0.73-1.02,1.33-1.38c0.6-0.36,1.34-0.66,2.23-0.91c0.89-0.25,1.94-0.45,3.16-0.61c0.62-0.1,1.14-0.19,1.55-0.29
			c0.42-0.1,0.73-0.25,0.93-0.45c0.2-0.2,0.3-0.51,0.3-0.91c0-0.6-0.21-1.12-0.62-1.55c-0.42-0.44-1.1-0.65-2.04-0.65
			c-0.56,0-1.09,0.1-1.58,0.3c-0.49,0.2-0.93,0.51-1.3,0.91c-0.38,0.41-0.63,0.94-0.77,1.59l-3.25-1.01
			c0.19-0.73,0.49-1.39,0.9-1.97c0.41-0.58,0.9-1.07,1.49-1.48c0.59-0.41,1.28-0.71,2.07-0.9c0.79-0.19,1.63-0.29,2.52-0.29
			c1.41,0,2.58,0.23,3.49,0.7c0.92,0.46,1.6,1.17,2.03,2.12c0.43,0.95,0.65,2.17,0.65,3.68v2.84c0.02,0.64,0.04,1.31,0.06,2.03
			c0.02,0.72,0.05,1.43,0.1,2.13c0.05,0.71,0.11,1.39,0.19,2.04h-3.25c-0.1-0.54-0.17-1.12-0.23-1.74
			c-0.06-0.62-0.11-1.25-0.15-1.88h-0.44c-0.27,0.72-0.66,1.39-1.16,2.02c-0.5,0.63-1.12,1.12-1.84,1.48
			C146.64,22.82,145.8,23,144.85,23z M146.3,20.27c0.39,0,0.78-0.07,1.17-0.2c0.4-0.14,0.79-0.33,1.17-0.59
			c0.39-0.26,0.74-0.59,1.07-1c0.33-0.41,0.61-0.88,0.84-1.42l-0.06-2.61l0.73,0.17c-0.35,0.25-0.76,0.45-1.23,0.59
			s-0.98,0.27-1.51,0.36c-0.53,0.1-1.06,0.19-1.6,0.29c-0.53,0.1-1.01,0.23-1.44,0.39c-0.43,0.16-0.76,0.4-1.01,0.7
			c-0.25,0.3-0.38,0.71-0.38,1.23c0,0.66,0.21,1.17,0.62,1.54C145.11,20.09,145.64,20.27,146.3,20.27z"/>
		<path d="M156.74,28.27c-0.17,0-0.35-0.01-0.52-0.04c-0.17-0.03-0.36-0.06-0.55-0.1l-0.29-3.19c0.99,0.1,1.7,0,2.15-0.29
			c0.44-0.29,0.67-0.93,0.67-1.91V7.42h3.68v15.28c0,0.97-0.11,1.8-0.32,2.49c-0.21,0.7-0.54,1.27-0.97,1.73
			c-0.44,0.45-0.98,0.79-1.62,1.02C158.31,28.16,157.57,28.27,156.74,28.27z M160.05,5.04c-0.75,0-1.32-0.16-1.71-0.48
			c-0.39-0.32-0.58-0.77-0.58-1.35c0-0.62,0.2-1.09,0.59-1.41c0.4-0.32,0.96-0.48,1.7-0.48c0.77,0,1.35,0.16,1.74,0.48
			c0.39,0.32,0.58,0.78,0.58,1.38s-0.2,1.06-0.59,1.38C161.38,4.89,160.8,5.04,160.05,5.04z"/>
		<path d="M169.5,23c-0.83,0-1.58-0.16-2.23-0.49s-1.17-0.82-1.54-1.46s-0.55-1.44-0.55-2.36c0-0.79,0.15-1.47,0.44-2.03
			c0.29-0.56,0.73-1.02,1.33-1.38c0.6-0.36,1.34-0.66,2.23-0.91c0.89-0.25,1.94-0.45,3.16-0.61c0.62-0.1,1.14-0.19,1.55-0.29
			c0.42-0.1,0.73-0.25,0.93-0.45c0.2-0.2,0.3-0.51,0.3-0.91c0-0.6-0.21-1.12-0.62-1.55c-0.42-0.44-1.1-0.65-2.04-0.65
			c-0.56,0-1.09,0.1-1.58,0.3c-0.49,0.2-0.93,0.51-1.3,0.91c-0.38,0.41-0.63,0.94-0.77,1.59l-3.25-1.01
			c0.19-0.73,0.49-1.39,0.9-1.97c0.41-0.58,0.9-1.07,1.49-1.48c0.59-0.41,1.28-0.71,2.07-0.9c0.79-0.19,1.63-0.29,2.52-0.29
			c1.41,0,2.58,0.23,3.49,0.7c0.92,0.46,1.6,1.17,2.03,2.12c0.43,0.95,0.65,2.17,0.65,3.68v2.84c0.02,0.64,0.04,1.31,0.06,2.03
			c0.02,0.72,0.05,1.43,0.1,2.13c0.05,0.71,0.11,1.39,0.19,2.04h-3.25c-0.1-0.54-0.17-1.12-0.23-1.74
			c-0.06-0.62-0.11-1.25-0.15-1.88h-0.44c-0.27,0.72-0.66,1.39-1.16,2.02c-0.5,0.63-1.12,1.12-1.84,1.48
			C171.29,22.82,170.45,23,169.5,23z M170.95,20.27c0.39,0,0.78-0.07,1.17-0.2c0.4-0.14,0.79-0.33,1.17-0.59
			c0.39-0.26,0.74-0.59,1.07-1c0.33-0.41,0.61-0.88,0.84-1.42l-0.06-2.61l0.73,0.17c-0.35,0.25-0.76,0.45-1.23,0.59
			s-0.98,0.27-1.51,0.36c-0.53,0.1-1.06,0.19-1.6,0.29c-0.53,0.1-1.01,0.23-1.44,0.39c-0.43,0.16-0.76,0.4-1.01,0.7
			c-0.25,0.3-0.38,0.71-0.38,1.23c0,0.66,0.21,1.17,0.62,1.54C169.76,20.09,170.29,20.27,170.95,20.27z"/>
		<path d="M182.67,22.59v-9.28l0.03-5.89h3.07l-0.12,4.64h0.55c0.25-1.12,0.61-2.06,1.07-2.81c0.46-0.75,1.05-1.31,1.75-1.67
			c0.71-0.36,1.52-0.54,2.45-0.54c1.74,0,3.06,0.61,3.97,1.84c0.91,1.23,1.36,3.11,1.36,5.64v8.06h-3.71V14.9
			c0-1.64-0.25-2.85-0.74-3.61s-1.22-1.15-2.19-1.15c-0.83,0-1.53,0.26-2.09,0.77c-0.56,0.51-0.99,1.19-1.28,2.03
			c-0.29,0.84-0.45,1.75-0.49,2.74v6.9H182.67z"/>
	</g>
</g>
</svg>
