<?xml version='1.0' encoding='utf-8'?>
<svg xmlns="http://www.w3.org/2000/svg" id="Layer_1" data-name="Layer 1" viewBox="0 0 193.34 26.94" width="150" height="35"><path d="M1.77,22.82l-.29-3.39.62,0,.48,0a4.36,4.36,0,0,0,2.05-.39,2,2,0,0,0,1-1.22,7.4,7.4,0,0,0,.25-2.13V3.45H9.51v12.3a10.71,10.71,0,0,1-.62,3.85,4.86,4.86,0,0,1-2,2.45,7,7,0,0,1-3.71.86l-.55,0C2.4,22.88,2.12,22.86,1.77,22.82Z" transform="translate(-1.48 -1.33)" /><path d="M17.11,23a4.88,4.88,0,0,1-2.23-.5A3.56,3.56,0,0,1,13.34,21a4.72,4.72,0,0,1-.55-2.37,4.34,4.34,0,0,1,.43-2,3.41,3.41,0,0,1,1.34-1.38,9.54,9.54,0,0,1,2.23-.92A22.79,22.79,0,0,1,20,13.74c.62-.09,1.14-.19,1.55-.28a1.93,1.93,0,0,0,.93-.45,1.28,1.28,0,0,0,.31-.92,2.16,2.16,0,0,0-.63-1.55,2.74,2.74,0,0,0-2-.65,4.15,4.15,0,0,0-1.58.3,3.72,3.72,0,0,0-1.31.92,3.3,3.3,0,0,0-.77,1.59l-3.24-1a6.15,6.15,0,0,1,.89-2,6,6,0,0,1,1.5-1.48,6.27,6.27,0,0,1,2.07-.89,10.3,10.3,0,0,1,2.52-.29,7.79,7.79,0,0,1,3.5.69,4.36,4.36,0,0,1,2,2.12,9,9,0,0,1,.65,3.68v2.84c0,.64,0,1.32.06,2s.05,1.43.1,2.14.11,1.38.19,2H23.43c-.1-.54-.17-1.12-.23-1.74s-.11-1.25-.15-1.89h-.43a7.45,7.45,0,0,1-1.16,2,5.4,5.4,0,0,1-1.84,1.48A5.58,5.58,0,0,1,17.11,23Zm1.45-2.73a3.69,3.69,0,0,0,1.17-.2,5.26,5.26,0,0,0,1.18-.6,4.77,4.77,0,0,0,1.07-1,5.79,5.79,0,0,0,.84-1.42l-.06-2.61.73.17a4.15,4.15,0,0,1-1.23.6,13.34,13.34,0,0,1-1.51.36l-1.6.29a8.43,8.43,0,0,0-1.43.39,2.47,2.47,0,0,0-1,.7,1.86,1.86,0,0,0-.37,1.23A1.93,1.93,0,0,0,17,19.72,2.33,2.33,0,0,0,18.56,20.27Z" transform="translate(-1.48 -1.33)" /><path d="M35.93,27.78a12.64,12.64,0,0,1-2.35-.23,9.94,9.94,0,0,1-2.22-.71,5.48,5.48,0,0,1-1.72-1.23l1.24-3.05A5.39,5.39,0,0,0,33.06,24a7.55,7.55,0,0,0,2.7.49,4.88,4.88,0,0,0,2.64-.66,4.25,4.25,0,0,0,1.59-2,9.68,9.68,0,0,0,.61-3.38l.23-2.78h-.64a9.34,9.34,0,0,1-1,3.25,4.41,4.41,0,0,1-1.67,1.77,4.74,4.74,0,0,1-2.32.55,4.58,4.58,0,0,1-2.78-.83A5,5,0,0,1,30.75,18a12.87,12.87,0,0,1-.56-4.06V7.42h3.68V13a9,9,0,0,0,.65,4,2.17,2.17,0,0,0,2,1.23,2.31,2.31,0,0,0,1.33-.39,3.42,3.42,0,0,0,1-1.13,6.56,6.56,0,0,0,.68-1.84,13.35,13.35,0,0,0,.27-2.53V7.42h3.69V18.65a15.4,15.4,0,0,1-.31,3.23,9,9,0,0,1-.91,2.57,6.41,6.41,0,0,1-1.52,1.85,6,6,0,0,1-2.13,1.12A9.82,9.82,0,0,1,35.93,27.78Z" transform="translate(-1.48 -1.33)" /><path d="M51.1,23a5,5,0,0,1-2.24-.5A3.53,3.53,0,0,1,47.33,21a4.72,4.72,0,0,1-.55-2.37,4.34,4.34,0,0,1,.43-2,3.41,3.41,0,0,1,1.34-1.38,9.36,9.36,0,0,1,2.23-.92,22.79,22.79,0,0,1,3.16-.61c.62-.09,1.13-.19,1.55-.28a1.93,1.93,0,0,0,.93-.45,1.27,1.27,0,0,0,.3-.92,2.19,2.19,0,0,0-.62-1.55,2.77,2.77,0,0,0-2.05-.65,4.19,4.19,0,0,0-1.58.3,3.77,3.77,0,0,0-1.3.92,3.21,3.21,0,0,0-.77,1.59l-3.25-1a6.39,6.39,0,0,1,.9-2,6,6,0,0,1,1.5-1.48,6.27,6.27,0,0,1,2.07-.89,10.24,10.24,0,0,1,2.52-.29,7.82,7.82,0,0,1,3.5.69,4.4,4.4,0,0,1,2,2.12,9,9,0,0,1,.65,3.68v2.84c0,.64,0,1.32.06,2s0,1.43.1,2.14.11,1.38.19,2H57.42a17.09,17.09,0,0,1-.23-1.74Q57.1,19.92,57,19h-.43a7.45,7.45,0,0,1-1.16,2,5.5,5.5,0,0,1-1.84,1.48A5.61,5.61,0,0,1,51.1,23Zm1.45-2.73a3.78,3.78,0,0,0,1.17-.2,5.26,5.26,0,0,0,1.18-.6,5,5,0,0,0,1.07-1,5.79,5.79,0,0,0,.84-1.42l-.06-2.61.73.17a4.09,4.09,0,0,1-1.24.6,12.67,12.67,0,0,1-1.5.36l-1.6.29a8.43,8.43,0,0,0-1.43.39,2.47,2.47,0,0,0-1,.7,1.86,1.86,0,0,0-.38,1.23,1.94,1.94,0,0,0,.63,1.54A2.31,2.31,0,0,0,52.55,20.27Z" transform="translate(-1.48 -1.33)" /><path d="M76.21,22.59,69.77,3.45h4l4.85,16H79l4.87-16h3.94L81.31,22.59Z" transform="translate(-1.48 -1.33)" /><path d="M95.52,23a9.34,9.34,0,0,1-3.29-.54,6.65,6.65,0,0,1-2.42-1.54,6.35,6.35,0,0,1-1.48-2.4,9.77,9.77,0,0,1-.49-3.24,10.48,10.48,0,0,1,.49-3.3,7.64,7.64,0,0,1,1.45-2.63,6.45,6.45,0,0,1,2.34-1.71,7.67,7.67,0,0,1,3.11-.59,7.88,7.88,0,0,1,3,.53,5.33,5.33,0,0,1,2.19,1.64,7.51,7.51,0,0,1,1.3,2.71,12.5,12.5,0,0,1,.35,3.76l-11.86.06V13.63l9.71-.06-1.3,1.16A5.85,5.85,0,0,0,98.38,12a3.12,3.12,0,0,0-1.25-1.57,3.56,3.56,0,0,0-1.87-.5,3.42,3.42,0,0,0-2,.62,4,4,0,0,0-1.38,1.8,7.32,7.32,0,0,0-.49,2.85A5.56,5.56,0,0,0,92.45,19a3.85,3.85,0,0,0,3.07,1.25A4.22,4.22,0,0,0,97,20a2.82,2.82,0,0,0,1-.59,3.06,3.06,0,0,0,.65-.84,4.61,4.61,0,0,0,.39-.93l3.19.7a6.65,6.65,0,0,1-.77,1.91,5,5,0,0,1-1.33,1.46,5.87,5.87,0,0,1-2,.95A9.83,9.83,0,0,1,95.52,23Z" transform="translate(-1.48 -1.33)" /><path d="M105.38,22.59V2H109V22.59Z" transform="translate(-1.48 -1.33)" /><path d="M120.17,22.59V3.45h7.43a15.7,15.7,0,0,1,2.78.23,8.76,8.76,0,0,1,2.22.71,6.16,6.16,0,0,1,1.65,1.16,4.51,4.51,0,0,1,1,1.57,5.14,5.14,0,0,1,.35,2,4.94,4.94,0,0,1-.33,1.84,4.42,4.42,0,0,1-1,1.45,4.7,4.7,0,0,1-1.57,1,8.61,8.61,0,0,1-2.18.52v.41a5.78,5.78,0,0,1,2.18.66,3.93,3.93,0,0,1,1.4,1.38,9.38,9.38,0,0,1,.91,2.19l1.16,4.06h-4l-.93-3.71a4.41,4.41,0,0,0-.8-1.84,2.93,2.93,0,0,0-1.34-1,5.67,5.67,0,0,0-1.95-.3h-3.33v6.84Zm3.69-9.66h3.45a5.79,5.79,0,0,0,3.35-.81A2.88,2.88,0,0,0,131.8,9.6a2.9,2.9,0,0,0-1.08-2.47,5.53,5.53,0,0,0-3.3-.81h-3.56Z" transform="translate(-1.48 -1.33)" /><path d="M142.79,23a4.91,4.91,0,0,1-2.23-.5A3.56,3.56,0,0,1,139,21a4.83,4.83,0,0,1-.55-2.37,4.33,4.33,0,0,1,.44-2,3.39,3.39,0,0,1,1.33-1.38,9.73,9.73,0,0,1,2.23-.92,23,23,0,0,1,3.17-.61c.61-.09,1.13-.19,1.55-.28a2,2,0,0,0,.93-.45,1.27,1.27,0,0,0,.3-.92,2.19,2.19,0,0,0-.62-1.55,2.77,2.77,0,0,0-2.05-.65,4.15,4.15,0,0,0-1.58.3,3.68,3.68,0,0,0-1.3.92,3.13,3.13,0,0,0-.77,1.59l-3.25-1a5.93,5.93,0,0,1,2.39-3.46,6.23,6.23,0,0,1,2.08-.89,10.24,10.24,0,0,1,2.52-.29,7.77,7.77,0,0,1,3.49.69,4.32,4.32,0,0,1,2,2.12,8.78,8.78,0,0,1,.66,3.68v2.84c0,.64,0,1.32,0,2s.06,1.43.11,2.14.11,1.38.18,2h-3.24q-.15-.81-.24-1.74c0-.62-.1-1.25-.14-1.89h-.44a7.2,7.2,0,0,1-1.16,2,5.31,5.31,0,0,1-1.84,1.48A5.55,5.55,0,0,1,142.79,23Zm1.45-2.73a3.8,3.8,0,0,0,1.18-.2,5.19,5.19,0,0,0,1.17-.6,4.81,4.81,0,0,0,1.08-1,6.49,6.49,0,0,0,.84-1.42l-.06-2.61.72.17a4,4,0,0,1-1.23.6,12.39,12.39,0,0,1-1.51.36l-1.59.29a8.83,8.83,0,0,0-1.44.39,2.51,2.51,0,0,0-1,.7,1.86,1.86,0,0,0-.38,1.23,2,2,0,0,0,.62,1.54A2.35,2.35,0,0,0,144.24,20.27Z" transform="translate(-1.48 -1.33)" /><path d="M154.74,28.27a3,3,0,0,1-.52,0l-.55-.1-.29-3.19a3.38,3.38,0,0,0,2.14-.29c.45-.29.67-.93.67-1.92V7.42h3.68V22.71a8.73,8.73,0,0,1-.31,2.49,4.31,4.31,0,0,1-1,1.73,4,4,0,0,1-1.62,1A6.91,6.91,0,0,1,154.74,28.27ZM158.05,5a2.6,2.6,0,0,1-1.71-.47,1.64,1.64,0,0,1-.58-1.35,1.69,1.69,0,0,1,.59-1.41,2.65,2.65,0,0,1,1.7-.48,2.69,2.69,0,0,1,1.74.48,1.71,1.71,0,0,1,.58,1.38,1.66,1.66,0,0,1-.6,1.38A2.67,2.67,0,0,1,158.05,5Z" transform="translate(-1.48 -1.33)" /><path d="M167.5,23a4.91,4.91,0,0,1-2.23-.5A3.56,3.56,0,0,1,163.73,21a4.72,4.72,0,0,1-.55-2.37,4.33,4.33,0,0,1,.44-2A3.39,3.39,0,0,1,165,15.27a9.54,9.54,0,0,1,2.23-.92,23.09,23.09,0,0,1,3.16-.61c.62-.09,1.14-.19,1.55-.28a1.93,1.93,0,0,0,.93-.45,1.23,1.23,0,0,0,.31-.92,2.16,2.16,0,0,0-.63-1.55,2.73,2.73,0,0,0-2-.65,4.15,4.15,0,0,0-1.58.3,3.81,3.81,0,0,0-1.31.92,3.2,3.2,0,0,0-.76,1.59l-3.25-1a6,6,0,0,1,.9-2A5.82,5.82,0,0,1,166,8.23,6.27,6.27,0,0,1,168,7.34a10.38,10.38,0,0,1,2.53-.29,7.77,7.77,0,0,1,3.49.69,4.32,4.32,0,0,1,2,2.12,8.79,8.79,0,0,1,.65,3.68v2.84c0,.64,0,1.32.06,2s.05,1.43.1,2.14.11,1.38.19,2h-3.25c-.09-.54-.17-1.12-.23-1.74s-.1-1.25-.14-1.89H173a7.45,7.45,0,0,1-1.16,2A5.4,5.4,0,0,1,170,22.46,5.58,5.58,0,0,1,167.5,23ZM169,20.27a3.8,3.8,0,0,0,1.18-.2,5.41,5.41,0,0,0,1.17-.6,4.77,4.77,0,0,0,1.07-1,5.79,5.79,0,0,0,.84-1.42l-.05-2.61.72.17a4.15,4.15,0,0,1-1.23.6,12.85,12.85,0,0,1-1.51.36l-1.59.29a8.56,8.56,0,0,0-1.44.39,2.44,2.44,0,0,0-1,.7,1.81,1.81,0,0,0-.38,1.23,2,2,0,0,0,.62,1.54A2.33,2.33,0,0,0,169,20.27Z" transform="translate(-1.48 -1.33)" /><path d="M180.67,22.59V13.31l0-5.89h3.07l-.12,4.64h.55a9.21,9.21,0,0,1,1.08-2.81A4.44,4.44,0,0,1,187,7.58a5.32,5.32,0,0,1,2.45-.53,4.64,4.64,0,0,1,4,1.84,9.56,9.56,0,0,1,1.36,5.64v8.06h-3.71V14.9a6.88,6.88,0,0,0-.74-3.61,2.46,2.46,0,0,0-2.19-1.14,3,3,0,0,0-2.09.77,4.81,4.81,0,0,0-1.28,2,9.52,9.52,0,0,0-.49,2.74v6.9Z" transform="translate(-1.48 -1.33)" /></svg>