<svg width="34" height="26" viewBox="0 0 34 26" fill="none" xmlns="http://www.w3.org/2000/svg">
<g filter="url(#filter0_i_161_53)">
<path d="M33.2287 19.371C34.6537 12.5753 30.1464 10.5855 27.136 10.7812C26.8377 10.8006 26.5949 10.512 26.7057 10.22C27.2692 8.73463 28.6594 6.42848 31.1034 5.58951C33.9373 4.61671 32.5203 2.48194 31.4576 1.53616C29.6358 -0.085186 23.1308 1.64397 19.7677 11.2643C14.8084 25.4508 31.1037 29.5045 33.2287 19.371Z" fill="#FFE7A9"/>
<path d="M14.8953 19.371C16.3204 12.5753 11.813 10.5855 8.80271 10.7812C8.50435 10.8006 8.26152 10.512 8.37232 10.22C8.93584 8.73463 10.326 6.42848 12.77 5.58951C15.604 4.61671 14.187 2.48194 13.1243 1.53616C11.3025 -0.085186 4.79747 1.64397 1.43441 11.2643C-3.52493 25.4508 12.7704 29.5045 14.8953 19.371Z" fill="#FFE7A9"/>
</g>
<path d="M33.2287 19.371C34.6537 12.5753 30.1464 10.5855 27.136 10.7812C26.8377 10.8006 26.5949 10.512 26.7057 10.22C27.2692 8.73463 28.6594 6.42848 31.1034 5.58951C33.9373 4.61671 32.5203 2.48194 31.4576 1.53616C29.6358 -0.085186 23.1308 1.64397 19.7677 11.2643C14.8084 25.4508 31.1037 29.5045 33.2287 19.371Z" stroke="#1D1D1D" stroke-linecap="round"/>
<path d="M14.8953 19.371C16.3204 12.5753 11.813 10.5855 8.80271 10.7812C8.50435 10.8006 8.26152 10.512 8.37232 10.22C8.93584 8.73463 10.326 6.42848 12.77 5.58951C15.604 4.61671 14.187 2.48194 13.1243 1.53616C11.3025 -0.085186 4.79747 1.64397 1.43441 11.2643C-3.52493 25.4508 12.7704 29.5045 14.8953 19.371Z" stroke="#1D1D1D" stroke-linecap="round"/>
<defs>
<filter id="filter0_i_161_53" x="0" y="0.500122" width="33.9996" height="28.9999" filterUnits="userSpaceOnUse" color-interpolation-filters="sRGB">
<feFlood flood-opacity="0" result="BackgroundImageFix"/>
<feBlend mode="normal" in="SourceGraphic" in2="BackgroundImageFix" result="shape"/>
<feColorMatrix in="SourceAlpha" type="matrix" values="0 0 0 0 0 0 0 0 0 0 0 0 0 0 0 0 0 0 127 0" result="hardAlpha"/>
<feOffset dy="4"/>
<feGaussianBlur stdDeviation="2"/>
<feComposite in2="hardAlpha" operator="arithmetic" k2="-1" k3="1"/>
<feColorMatrix type="matrix" values="0 0 0 0 1 0 0 0 0 1 0 0 0 0 1 0 0 0 0.25 0"/>
<feBlend mode="normal" in2="shape" result="effect1_innerShadow_161_53"/>
</filter>
</defs>
</svg>
