<svg width="99" height="100" viewBox="0 0 99 100" fill="none" xmlns="http://www.w3.org/2000/svg">
<path d="M25.6481 83.9479L21.3981 89.8339L20.4082 89.1189L24.6582 83.2329L25.6481 83.9479Z" fill="#1D1D1D"/>
<path d="M17.8899 76.9029L10.5417 79.164L9.50586 77.7547L13.8573 71.4165L14.6261 72.4624L13.6672 73.7952L15.5629 76.3744L17.1212 75.857L17.8899 76.9029ZM10.855 77.9372L14.6845 76.6651L13.1275 74.5468L10.7703 77.822L10.855 77.9372Z" fill="#1D1D1D"/>
<path d="M12.5437 68.8141L5.85131 71.6283L5.13931 69.9349L9.7424 65.5292L9.72111 65.4785L3.357 65.6964L2.6748 64.074L9.3672 61.2598L9.8106 62.3144L4.2038 64.5885L4.24211 64.6798L10.7487 64.5452L11.1751 65.5592L6.519 70.0945L6.55741 70.1858L12.1046 67.7697L12.5437 68.8141Z" fill="#1D1D1D"/>
<path d="M8.26025 53.8796L0.933355 51.5504L0.885254 49.802L8.07285 47.0732L8.10855 48.3707L6.56105 48.9195L6.64915 52.1193L8.22445 52.5821L8.26025 53.8796ZM1.88985 50.7207L5.76165 51.8576L5.68925 49.2296L1.88595 50.5778L1.88985 50.7207Z" fill="#1D1D1D"/>
<path d="M8.88175 42.3179L1.28345 43.3664L1.53255 42.0813L8.00655 41.3415L8.02955 41.2227L2.30475 38.0964L2.54965 36.833L9.20405 40.6548L8.88175 42.3179Z" fill="#1D1D1D"/>
<path d="M10.5416 35.8665L4.8938 30.6502L5.5915 29.0464L13.2581 29.6228L12.7403 30.8131L11.1061 30.6539L9.829 33.5891L11.0595 34.6763L10.5416 35.8665ZM6.1118 30.3044L9.1362 32.9758L10.185 30.5651L6.1689 30.1733L6.1118 30.3044Z" fill="#1D1D1D"/>
<path d="M15.0285 27.0823L8.98462 23.06L9.66112 22.0435L15.705 26.0658L15.0285 27.0823Z" fill="#1D1D1D"/>
<path d="M18.3542 22.6537L13.0283 17.7199L13.8432 16.8403L18.4105 21.0715L20.6382 18.6668L21.3967 19.3695L18.3542 22.6537Z" fill="#1D1D1D"/>
<path d="M23.3703 17.6815L21.2002 10.3059L22.6222 9.2876L28.9062 13.717L27.8509 14.4728L26.53 13.4975L23.9276 15.3612L24.4256 16.9257L23.3703 17.6815ZM22.4231 10.6343L23.6477 14.4792L25.7851 12.9485L22.5393 10.5511L22.4231 10.6343Z" fill="#1D1D1D"/>
<path d="M31.6194 12.4581L28.7192 5.80248L31.2604 4.69519C32.8033 4.02279 34.0156 4.10649 34.5561 5.34679C34.8989 6.13339 34.6617 6.80069 33.653 7.43229L33.7101 7.56328C35.0045 7.11928 35.8039 7.46689 36.1994 8.37449C36.696 9.51399 36.1371 10.4894 34.4027 11.2453L31.6194 12.4581ZM31.0203 8.21948L32.1497 7.72739C33.3699 7.19559 33.8199 6.60358 33.5299 5.93798C33.2442 5.28258 32.5836 5.19849 31.5349 5.65549L30.1634 6.25308L31.0203 8.21948ZM32.2683 11.0834L34.0633 10.3012C35.0213 9.88378 35.3533 9.37909 35.0633 8.71359C34.7337 7.95719 33.9459 7.85658 32.6753 8.41028L31.3543 8.98588L32.2683 11.0834Z" fill="#1D1D1D"/>
<path d="M39.5552 9.5645L37.9902 2.4752L39.161 2.2168L40.5031 8.2964L43.7041 7.5898L43.927 8.5995L39.5552 9.5645Z" fill="#1D1D1D"/>
<path d="M47.1534 8.34264L46.9822 1.08464L52.2278 0.960938L52.2514 1.96164L48.2045 2.05714L48.254 4.15754L51.7841 4.07424L51.8061 5.00894L48.2761 5.09224L48.3282 7.30264L52.3861 7.20694L52.41 8.21864L47.1534 8.34264Z" fill="#1D1D1D"/>
<path d="M63.4517 12.2442C64.1778 10.9014 64.211 9.21569 63.1997 7.68119C62.808 7.08699 62.2133 6.64389 61.6187 6.22529C64.2688 7.45829 66.3482 5.57439 67.6193 3.94629C66.679 5.50669 66.7917 7.75799 68.7383 8.93669C66.2103 8.94039 64.5827 10.4573 63.4517 12.2442Z" fill="white" stroke="#1D1D1D" stroke-miterlimit="1.5" stroke-linecap="round" stroke-linejoin="round"/>
<path d="M34.0566 96.8341C34.7828 95.4921 34.8159 93.8061 33.8046 92.2711C33.413 91.6771 32.8183 91.2341 32.2236 90.8161C34.8737 92.0481 36.9531 90.1651 38.2243 88.5361C37.2839 90.0971 37.3967 92.3481 39.3432 93.5271C36.8152 93.5311 35.1876 95.0471 34.0566 96.8341Z" fill="white" stroke="#1D1D1D" stroke-miterlimit="1.5" stroke-linecap="round" stroke-linejoin="round"/>
<path d="M75.4469 17.0192L80.081 11.4302L84.052 14.7228L83.385 15.5273L80.337 12.9999L78.9184 14.7105L81.62 16.9501L80.974 17.7291L78.2725 15.4896L76.3699 17.7845L75.4469 17.0192Z" fill="#1D1D1D"/>
<path d="M82.8561 24.6832C81.5411 23.0449 81.9041 21.2301 83.7131 19.7771C85.6951 18.1863 87.5561 18.4836 88.7541 19.9761C90.0011 21.5287 89.7501 23.3948 87.8541 24.9167C86.0181 26.3904 84.1651 26.3129 82.8561 24.6832ZM83.6501 24.0737C84.4771 25.103 85.7091 25.0733 87.0551 23.9921C88.4451 22.8765 88.7621 21.6202 87.9431 20.5994C87.1371 19.5959 85.8671 19.6135 84.4781 20.7292C83.1051 21.831 82.8171 23.0358 83.6501 24.0737Z" fill="#1D1D1D"/>
<path d="M86.3571 29.7047L92.8431 26.4429L94.0391 28.8211C94.8841 30.5016 94.6901 31.8303 93.4811 32.4381C92.5571 32.9027 91.6811 32.6292 90.9951 31.6076L90.8671 31.6718C91.1641 32.532 90.9841 33.1031 90.2031 33.8281L88.9911 34.9426L88.4031 33.7732L89.5421 32.8064C90.2291 32.2145 90.2911 31.5797 89.8861 30.7739L89.2831 29.5749L86.8951 30.7759L86.3571 29.7047ZM90.1281 29.1499L90.7461 30.3783C91.2851 31.4495 91.9551 31.8268 92.7701 31.4166C93.5761 31.0113 93.6981 30.2977 93.1441 29.1971L92.5161 27.949L90.1281 29.1499Z" fill="#1D1D1D"/>
<path d="M91.004 42.9295L98.196 41.9341L98.903 47.0444L97.868 47.1876L97.325 43.265L95.124 43.5697L95.605 47.0455L94.603 47.1843L94.121 43.7084L91.169 44.1171L91.004 42.9295Z" fill="#1D1D1D"/>
<path d="M91.6181 50.6011L98.8661 51.0085L98.7171 53.6663C98.6111 55.5443 97.7811 56.5994 96.4301 56.5234C95.3971 56.4654 94.7741 55.7914 94.6891 54.5637L94.5461 54.5556C94.3751 55.4494 93.9331 55.8543 92.8951 56.0934L91.2891 56.4548L91.3621 55.1479L92.8321 54.8779C93.7221 54.7076 94.0931 54.1886 94.1441 53.288L94.2191 51.9482L91.5501 51.7982L91.6181 50.6011ZM95.1641 52.0012L95.0861 53.3741C95.0191 54.5712 95.4121 55.2323 96.3231 55.2835C97.2241 55.3341 97.6851 54.7761 97.7541 53.546L97.8321 52.1513L95.1641 52.0012Z" fill="#1D1D1D"/>
<path d="M90.646 58.9668L97.666 60.8209L96.326 65.8939L95.358 65.6383L96.392 61.7245L94.36 61.188L93.458 64.6019L92.554 64.3631L93.456 60.9492L91.319 60.3845L90.282 64.3089L89.303 64.0504L90.646 58.9668Z" fill="#1D1D1D"/>
<path d="M88.017 66.9683L94.521 70.1937L92.19 74.8944L91.293 74.4497L93.092 70.8232L91.209 69.8897L89.641 73.0531L88.803 72.6378L90.372 69.4744L88.391 68.4921L86.588 72.1285L85.681 71.6789L88.017 66.9683Z" fill="#1D1D1D"/>
<path d="M83.807 74.2915L89.569 78.7085L88.84 79.66L83.899 75.8722L81.904 78.4737L81.084 77.8446L83.807 74.2915Z" fill="#1D1D1D"/>
<path d="M79.2759 79.709L82.123 86.8511L80.802 87.9971L74.1329 84.1711L75.1133 83.3211L76.5191 84.1691L78.9369 82.0711L78.2955 80.5601L79.2759 79.709ZM80.875 86.6371L79.2976 82.9231L77.3119 84.6461L80.767 86.7311L80.875 86.6371Z" fill="#1D1D1D"/>
<path d="M71.5791 85.6782L75.0323 92.0652L73.639 92.8182L67.7417 89.5672L67.6546 89.6142L70.4169 94.5602L69.3912 95.1152L65.938 88.7292L67.2056 88.0432L73.3124 91.3812L73.3994 91.3342L70.5534 86.2332L71.5791 85.6782Z" fill="#1D1D1D"/>
<path d="M60.2354 90.2658C62.2988 89.6798 63.8839 90.5898 64.5331 92.8758C65.1913 95.1928 64.3183 96.9508 62.3713 97.5038C60.8687 97.9298 59.5384 97.3928 59.1265 96.0238L60.1383 95.4388C60.4056 96.4608 61.2982 96.7448 62.1235 96.5098C63.1394 96.2218 63.8964 95.1838 63.3524 93.2678C62.8264 91.4168 61.7318 90.9038 60.4832 91.2588C59.2452 91.6098 59.0126 92.5228 59.2648 93.5718L58.1873 93.6828C57.7937 92.2168 58.2461 90.8308 60.2354 90.2658Z" fill="#1D1D1D"/>
<path d="M54.3748 91.5L54.8553 98.744L49.6198 99.091L49.5536 98.092L53.5927 97.824L53.4536 95.728L49.9304 95.962L49.8685 95.029L53.3918 94.795L53.2454 92.589L49.1953 92.858L49.1284 91.848L54.3748 91.5Z" fill="#1D1D1D"/>
</svg>
