<svg width="252" height="90" viewBox="0 0 252 90" fill="none" xmlns="http://www.w3.org/2000/svg">
<path d="M5.28099 31.5959C9.07909 27.5372 17.2641 16.6125 21.7406 15.3824C34.088 11.9902 66.0278 8.78585 79.2298 8.43306C119.035 7.36814 160.762 12.7072 200.292 17.8422C212.88 19.4767 231.074 22.5689 237.797 30.8526C240.763 34.5061 246.328 36.9283 248.539 41.11C248.671 41.3588 249.77 42.0041 249.209 42.375C245.771 44.6564 235.379 44.9288 230.845 45.4483C230.492 45.4885 226.221 45.4202 226.176 45.9836C226.163 46.1413 236.673 51.4273 241.731 53.8977C241.969 54.0147 245.873 56.5648 245.345 56.9158C240.622 60.0523 227.167 56.1572 222.406 59.319C221.676 59.7985 225.098 61.2134 225.325 61.3715C227.91 63.1937 229.966 65.5916 232.55 67.4075C233.382 67.9907 236.644 69.838 235.804 70.0909C231.854 71.2896 223.07 68.7449 218.954 68.7391C208.609 68.7166 198.173 68.3788 187.785 68.0569C146.255 66.7709 104.969 68.8006 63.5535 69.3059C49.4441 69.4767 35.19 68.9724 21.1311 69.5366C19.7373 69.5917 9.11945 71.044 8.34588 70.3292C7.83363 69.8546 11.7569 66.9689 12.1076 66.6903C16.9626 62.9072 21.408 60.7833 27.7701 58.8551C28.792 58.5442 34.0361 57.6364 34.1164 56.636C34.1782 55.8647 28.5426 55.3489 27.6774 55.2096C21.6682 54.2498 15.9572 54.5738 10.0341 54.0987C9.17176 54.0295 4.52935 54.1844 3.904 53.6069C2.31843 52.1336 7.72979 49.0682 8.55297 48.5234C14.4517 44.6062 19.854 40.3947 26.3208 38.4321C27.4028 38.103 21.7527 37.1945 21.4134 37.1285C17.1139 36.2924 13.1064 36.7648 8.74893 36.4152C8.03763 36.3581 3.00981 36.2845 2.97432 36.2546C1.91428 35.276 4.77446 32.1407 5.28099 31.5959Z" fill="#E3F2FF"/>
<path d="M5.28099 31.5959C9.07909 27.5372 17.2641 16.6125 21.7406 15.3824C34.088 11.9902 66.0278 8.78585 79.2298 8.43306C119.035 7.36814 160.762 12.7072 200.292 17.8422C212.88 19.4767 231.074 22.5689 237.797 30.8526C240.763 34.5061 246.328 36.9283 248.539 41.11C248.671 41.3588 249.77 42.0041 249.209 42.375C245.771 44.6564 235.379 44.9288 230.845 45.4483C230.492 45.4885 226.221 45.4202 226.176 45.9836C226.163 46.1413 236.673 51.4273 241.731 53.8977C241.969 54.0147 245.873 56.5648 245.345 56.9158C240.622 60.0523 227.167 56.1571 222.406 59.319C221.676 59.7985 225.098 61.2134 225.325 61.3715C227.91 63.1937 229.966 65.5916 232.55 67.4075C233.382 67.9907 236.644 69.838 235.804 70.0909C231.854 71.2896 223.07 68.7449 218.954 68.7391C208.609 68.7166 198.173 68.3788 187.785 68.0569C146.255 66.7709 104.969 68.8006 63.5535 69.3059C49.4441 69.4767 35.19 68.9724 21.1311 69.5366C19.7373 69.5917 9.11945 71.044 8.34588 70.3292C7.83363 69.8546 11.7569 66.9689 12.1076 66.6903C16.9626 62.9072 21.408 60.7833 27.7701 58.8551C28.792 58.5442 34.0361 57.6364 34.1164 56.636C34.1782 55.8647 28.5426 55.3489 27.6774 55.2096C21.6682 54.2498 15.9572 54.5738 10.0341 54.0987C9.17176 54.0295 4.52935 54.1844 3.904 53.6069C2.31843 52.1336 7.72979 49.0682 8.55297 48.5234C14.4517 44.6062 19.854 40.3947 26.3208 38.4321C27.4028 38.103 21.7527 37.1945 21.4134 37.1285C17.1139 36.2924 13.1064 36.7648 8.74893 36.4152C8.03763 36.3581 3.00981 36.2845 2.97432 36.2546C1.91428 35.276 4.77446 32.1407 5.28099 31.5959Z" stroke="#1D1D1D" stroke-linecap="round" stroke-linejoin="round"/>
<path d="M35.3814 15.901C35.474 13.5885 25.3065 24.9225 25.9923 25.7304C27.1105 27.0416 37.8794 27.6259 38.783 27.5017C39.1158 23.3531 39.6859 16.2464 35.3814 15.901Z" fill="#1D1D1D"/>
<path d="M83.3607 8.34455C81.9817 8.36655 80.6044 8.39589 79.2297 8.43266C77.3586 8.48284 75.1108 8.58985 72.5961 8.74672C71.1588 10.4962 70.1459 11.9771 70.3784 12.2506C71.4965 13.5628 82.2655 14.1466 83.169 14.0224C83.2999 12.3909 83.4676 10.3005 83.3607 8.34455Z" fill="#1D1D1D"/>
<path d="M130.496 44.8263C130.589 42.5138 120.421 53.8478 121.107 54.6552C122.226 55.9669 132.994 56.5512 133.898 56.427C134.231 52.2784 134.801 45.1717 130.496 44.8263Z" fill="#1D1D1D"/>
<path d="M199.957 68.4211C196.394 68.3238 192.831 68.2134 189.272 68.103C192.083 64.7053 196.4 60.3941 196.339 61.9049C199.12 62.128 199.867 65.1741 199.957 68.4211Z" fill="#1D1D1D"/>
<path d="M141.578 10.9692C139 10.7299 136.42 10.5031 133.841 10.2898C131.223 13.0489 128.471 16.5077 128.839 16.9405C129.957 18.2526 140.726 18.836 141.63 18.7123C141.809 16.4829 142.056 13.3988 141.578 10.9692Z" fill="#1D1D1D"/>
<path d="M228.674 24.5019C232.155 26.0429 235.138 27.9106 237.227 30.1911C237.183 30.9296 237.127 31.6338 237.076 32.2684C236.172 32.3926 225.403 31.8088 224.285 30.4967C223.946 30.0977 226.259 27.1261 228.674 24.5019Z" fill="#1D1D1D"/>
<path d="M43.2512 69.2784C39.9542 69.2607 36.6584 69.2516 33.3678 69.2727C34.6507 65.8481 36.4034 63.113 39.7753 61.6229C40.1091 62.0782 42.0029 65.985 43.2512 69.2784Z" fill="#1D1D1D"/>
<path d="M75.1404 56.0103C73.062 57.03 86.777 58.1095 87.1603 57.1217C87.7814 55.5138 83.1684 45.7655 82.6293 45.0298C78.2224 46.9773 76.5817 51.0503 75.1404 56.0103Z" fill="#1D1D1D"/>
<path d="M157.254 44.5789C155.175 45.5985 168.89 46.6776 169.274 45.6898C169.895 44.0819 165.282 34.3336 164.743 33.598C160.336 35.5454 158.695 39.6189 157.254 44.5789Z" fill="#1D1D1D"/>
<path d="M54.567 39.2776C54.6387 37.4104 48.3896 46.713 48.9682 47.3671C49.9102 48.4287 58.9537 48.9283 59.7121 48.8308C60.0231 44.9547 57.6625 42.2166 54.567 39.2776Z" fill="#1D1D1D"/>
<path d="M212.284 41.3281C212.356 39.4609 206.107 48.7636 206.685 49.4176C207.627 50.4793 216.671 50.9788 217.429 50.8813C217.74 47.0052 215.38 44.2672 212.284 41.3281Z" fill="#1D1D1D"/>
<path d="M98.953 25.7986C99.0247 23.9314 92.7756 33.234 93.3542 33.8876C94.2961 34.9497 103.34 35.4493 104.098 35.3513C104.409 31.4757 102.048 28.7376 98.953 25.7986Z" fill="#1D1D1D"/>
<path fill-rule="evenodd" clip-rule="evenodd" d="M158.015 67.637C153.811 67.6394 149.609 67.6636 145.409 67.7055C147.178 63.8991 152.05 56.3426 151.963 58.3818C154.801 61.3648 157.142 64.2009 158.015 67.637Z" fill="#1D1D1D"/>
<path d="M181.478 15.4272C179.253 15.1481 177.024 14.8714 174.79 14.5984C173.34 16.7421 171.982 19.143 172.265 19.4634C173.208 20.5251 182.251 21.0246 183.01 20.9271C183.178 18.8318 182.565 17.0689 181.478 15.4272Z" fill="#1D1D1D"/>
<path d="M35.3814 15.901C35.474 13.5885 25.3065 24.9225 25.9923 25.7304C27.1105 27.0416 37.8794 27.6259 38.783 27.5017C39.1158 23.3531 39.6859 16.2464 35.3814 15.901Z" stroke="#1D1D1D" stroke-linecap="round" stroke-linejoin="round"/>
<path d="M83.3607 8.34455C81.9817 8.36655 80.6044 8.39589 79.2297 8.43266C77.3586 8.48284 75.1108 8.58985 72.5961 8.74672C71.1588 10.4962 70.1459 11.9771 70.3784 12.2506C71.4965 13.5628 82.2655 14.1466 83.169 14.0224C83.2999 12.3909 83.4676 10.3005 83.3607 8.34455Z" stroke="#1D1D1D" stroke-linecap="round" stroke-linejoin="round"/>
<path d="M130.496 44.8263C130.589 42.5138 120.421 53.8478 121.107 54.6552C122.226 55.9669 132.994 56.5512 133.898 56.427C134.231 52.2784 134.801 45.1717 130.496 44.8263Z" stroke="#1D1D1D" stroke-linecap="round" stroke-linejoin="round"/>
<path d="M199.957 68.4211C196.394 68.3238 192.831 68.2134 189.272 68.103C192.083 64.7053 196.4 60.3941 196.339 61.9049C199.12 62.128 199.867 65.1741 199.957 68.4211Z" stroke="#1D1D1D" stroke-linecap="round" stroke-linejoin="round"/>
<path d="M141.578 10.9692C139 10.7299 136.42 10.5031 133.841 10.2898C131.223 13.0489 128.471 16.5077 128.839 16.9405C129.957 18.2526 140.726 18.836 141.63 18.7123C141.809 16.4829 142.056 13.3988 141.578 10.9692Z" stroke="#1D1D1D" stroke-linecap="round" stroke-linejoin="round"/>
<path d="M228.674 24.5019C232.155 26.0429 235.138 27.9106 237.227 30.1911C237.183 30.9296 237.127 31.6338 237.076 32.2684C236.172 32.3926 225.403 31.8088 224.285 30.4967C223.946 30.0977 226.259 27.1261 228.674 24.5019Z" stroke="#1D1D1D" stroke-linecap="round" stroke-linejoin="round"/>
<path d="M43.2512 69.2784C39.9542 69.2607 36.6584 69.2516 33.3678 69.2727C34.6507 65.8481 36.4034 63.113 39.7753 61.6229C40.1091 62.0782 42.0029 65.985 43.2512 69.2784Z" stroke="#1D1D1D" stroke-linecap="round" stroke-linejoin="round"/>
<path d="M75.1404 56.0103C73.062 57.03 86.777 58.1095 87.1603 57.1217C87.7814 55.5138 83.1684 45.7655 82.6293 45.0298C78.2224 46.9773 76.5817 51.0503 75.1404 56.0103Z" stroke="#1D1D1D" stroke-linecap="round" stroke-linejoin="round"/>
<path d="M157.254 44.5789C155.175 45.5985 168.89 46.6776 169.274 45.6898C169.895 44.0819 165.282 34.3336 164.743 33.598C160.336 35.5454 158.695 39.6189 157.254 44.5789Z" stroke="#1D1D1D" stroke-linecap="round" stroke-linejoin="round"/>
<path d="M54.567 39.2776C54.6387 37.4104 48.3896 46.713 48.9682 47.3671C49.9102 48.4287 58.9537 48.9283 59.7121 48.8308C60.0231 44.9547 57.6625 42.2166 54.567 39.2776Z" stroke="#1D1D1D" stroke-linecap="round" stroke-linejoin="round"/>
<path d="M212.284 41.3281C212.356 39.4609 206.107 48.7636 206.685 49.4176C207.627 50.4793 216.671 50.9788 217.429 50.8813C217.74 47.0052 215.38 44.2672 212.284 41.3281Z" stroke="#1D1D1D" stroke-linecap="round" stroke-linejoin="round"/>
<path d="M98.953 25.7986C99.0247 23.9314 92.7756 33.234 93.3542 33.8876C94.2961 34.9497 103.34 35.4493 104.098 35.3513C104.409 31.4757 102.048 28.7376 98.953 25.7986Z" stroke="#1D1D1D" stroke-linecap="round" stroke-linejoin="round"/>
<path d="M158.015 67.6372L158.015 68.5362C158.152 68.5362 158.287 68.5048 158.41 68.4446C158.533 68.3844 158.641 68.297 158.725 68.1889C158.809 68.0808 158.867 67.955 158.895 67.821C158.923 67.687 158.92 67.5484 158.886 67.4157L158.015 67.6372ZM145.408 67.7057L144.593 67.3268C144.529 67.4645 144.501 67.6162 144.511 67.7678C144.522 67.9193 144.57 68.0658 144.653 68.1934C144.735 68.3211 144.848 68.4258 144.982 68.4978C145.116 68.5698 145.266 68.6067 145.418 68.605L145.408 67.7057ZM151.963 58.382L151.064 58.3437C151.054 58.5879 151.143 58.8251 151.311 59.0019L151.963 58.382ZM158.014 66.7376C153.808 66.7403 149.603 66.7647 145.399 66.8064L145.418 68.605C149.616 68.5633 153.815 68.5389 158.015 68.5362L158.014 66.7376ZM152.862 58.4203C152.869 58.2517 152.865 57.9501 152.707 57.6681C152.605 57.4836 152.448 57.3351 152.259 57.2427C152.069 57.1502 151.856 57.1184 151.648 57.1514C151.361 57.1934 151.136 57.3418 151.011 57.4332C150.858 57.5484 150.715 57.6755 150.582 57.8134C150.049 58.3574 149.354 59.2887 148.637 60.3476C147.19 62.4852 145.503 65.3685 144.593 67.3268L146.224 68.0847C147.083 66.2365 148.717 63.4381 150.127 61.3558C150.838 60.3045 151.455 59.4916 151.866 59.073C151.966 58.9713 152.034 58.9128 152.073 58.8848C152.134 58.8401 152.068 58.9074 151.91 58.9308C151.765 58.951 151.618 58.9287 151.486 58.8665C151.34 58.7998 151.219 58.6889 151.139 58.5496C151.043 58.3791 151.068 58.2574 151.064 58.3437L152.862 58.4203ZM158.886 67.4157C157.95 63.7319 155.455 60.7475 152.614 57.7621L151.311 59.0019C154.147 61.9824 156.333 64.6708 157.143 67.8586L158.886 67.4157Z" fill="#1D1D1D"/>
<path d="M181.478 15.4272C179.253 15.1481 177.024 14.8714 174.79 14.5984C173.34 16.7421 171.982 19.143 172.265 19.4634C173.208 20.5251 182.251 21.0246 183.01 20.9271C183.178 18.8318 182.565 17.0689 181.478 15.4272Z" stroke="#1D1D1D" stroke-linecap="round" stroke-linejoin="round"/>
</svg>
